<svg width="559" height="74" viewBox="0 0 559 74" fill="none" xmlns="http://www.w3.org/2000/svg">
<g filter="url(#filter0_ii_1161_447)">
<path d="M49 12.12H35.5055C34.3848 12.12 33.3536 12.7383 32.8169 13.732L15.3125 46.1444C9.95314 55.4238 4.39336 58.5169 0 58.5169H39.8125L49 12.12Z" fill="url(#paint0_linear_1161_447)"/>
</g>
<path d="M63.2841 59H68.5682V39.483H87.4886V34.7955H68.5682V20.0511H89.4489V15.3636H63.2841V59ZM101.646 15.3636H96.6171V59H101.646V15.3636ZM112.894 71.2727C117.432 71.2727 120.628 68.8651 122.525 63.7727L136.459 26.358L130.962 26.2727L121.928 52.3523H121.587L112.553 26.2727H107.099L119.201 59.1705L118.263 61.7273C116.431 66.7131 114.172 67.1818 110.508 66.2443L109.229 70.6761C109.741 70.9318 111.189 71.2727 112.894 71.2727Z" fill="url(#paint1_linear_1161_447)"/>
<path d="M142.594 59H158.361C168.674 59 172.935 53.9716 172.935 47.4091C172.935 40.5057 168.162 36.7557 164.157 36.5V36.0739C167.907 35.0511 171.231 32.5795 171.231 26.9545C171.231 20.5625 166.969 15.3636 157.85 15.3636H142.594V59ZM147.878 54.3125V39.142H158.617C164.327 39.142 167.907 42.9773 167.907 47.4091C167.907 51.2443 165.265 54.3125 158.361 54.3125H147.878ZM147.878 34.5398V20.0511H157.85C163.645 20.0511 166.202 23.1193 166.202 26.9545C166.202 31.5568 162.452 34.5398 157.679 34.5398H147.878ZM182.975 71.2727C187.513 71.2727 190.709 68.8651 192.605 63.7727L206.54 26.358L201.043 26.2727L192.009 52.3523H191.668L182.634 26.2727H177.179L189.281 59.1705L188.344 61.7273C186.511 66.7131 184.253 67.1818 180.588 66.2443L179.31 70.6761C179.821 70.9318 181.27 71.2727 182.975 71.2727ZM220.601 59H226.055L235.686 24.2273H236.027L245.658 59H251.112L263.044 15.3636H257.675L248.555 50.9034H248.129L238.839 15.3636H232.874L223.584 50.9034H223.158L214.038 15.3636H208.669L220.601 59ZM267.746 59H272.774V26.2727H267.746V59ZM270.303 20.8182C272.263 20.8182 273.882 19.2841 273.882 17.4091C273.882 15.5341 272.263 14 270.303 14C268.343 14 266.723 15.5341 266.723 17.4091C266.723 19.2841 268.343 20.8182 270.303 20.8182ZM280.784 59H285.813V38.2898C285.813 33.858 289.307 30.6193 294.08 30.6193C295.422 30.6193 296.807 30.875 297.148 30.9602V25.8466C296.573 25.804 295.252 25.7614 294.506 25.7614C290.585 25.7614 287.176 27.9773 285.983 31.2159H285.642V26.2727H280.784V59ZM314.634 59.6818C321.282 59.6818 326.14 56.358 327.674 51.4148L322.816 50.0511C321.537 53.4602 318.576 55.1648 314.634 55.1648C308.732 55.1648 304.662 51.3509 304.428 44.3409H328.185V42.2102C328.185 30.0227 320.941 25.8466 314.123 25.8466C305.259 25.8466 299.378 32.8352 299.378 42.892C299.378 52.9489 305.174 59.6818 314.634 59.6818ZM304.428 39.9943C304.769 34.902 308.37 30.3636 314.123 30.3636C319.577 30.3636 323.072 34.4545 323.072 39.9943H304.428Z" fill="white"/>
<path d="M351.568 15.3636H346.284V59H351.568V15.3636ZM365.31 39.3125C365.31 33.6023 368.847 30.3636 373.662 30.3636C378.328 30.3636 381.162 33.4105 381.162 38.5455V59H386.19V38.2045C386.19 29.8523 381.737 25.8466 375.111 25.8466C370.168 25.8466 367.099 28.0625 365.565 31.3864H365.139V26.2727H360.281V59H365.31V39.3125ZM417.361 33.6023C415.784 28.9574 412.247 25.8466 405.77 25.8466C398.866 25.8466 393.753 29.767 393.753 35.3068C393.753 39.8239 396.437 42.8494 402.446 44.2557L407.9 45.5341C411.203 46.3011 412.758 47.8778 412.758 50.1364C412.758 52.9489 409.775 55.25 405.088 55.25C400.976 55.25 398.398 53.4815 397.503 49.9659L392.73 51.1591C393.902 56.7202 398.483 59.6818 405.173 59.6818C412.78 59.6818 417.957 55.527 417.957 49.8807C417.957 45.321 415.102 42.4446 409.264 41.017L404.406 39.8239C400.528 38.8651 398.781 37.5653 398.781 35.0511C398.781 32.2386 401.764 30.1932 405.77 30.1932C410.159 30.1932 411.97 32.6222 412.844 34.8807L417.361 33.6023ZM438.559 26.2727H431.571V18.4318H426.542V26.2727H421.599V30.5341H426.542V50.9886C426.542 56.6989 431.145 59.4261 435.406 59.4261C437.281 59.4261 438.474 59.0852 439.156 58.8295L438.133 54.3125C437.707 54.3977 437.025 54.5682 435.917 54.5682C433.701 54.5682 431.571 53.8864 431.571 49.625V30.5341H438.559V26.2727ZM454.554 59.767C460.264 59.767 463.247 56.6989 464.27 54.5682H464.526V59H469.554V37.4375C469.554 27.0398 461.628 25.8466 457.452 25.8466C452.509 25.8466 446.884 27.5511 444.327 33.517L449.1 35.2216C450.207 32.8352 452.828 30.2784 457.622 30.2784C462.246 30.2784 464.526 32.7287 464.526 36.9261V37.0966C464.526 39.5256 462.054 39.3125 456.088 40.0795C450.016 40.8679 443.389 42.2102 443.389 49.7102C443.389 56.1023 448.332 59.767 454.554 59.767ZM455.321 55.25C451.315 55.25 448.418 53.4602 448.418 49.9659C448.418 46.1307 451.912 44.9375 455.832 44.4261C457.963 44.1705 463.673 43.5739 464.526 42.5511V47.1534C464.526 51.2443 461.287 55.25 455.321 55.25ZM482.56 15.3636H477.532V59H482.56V15.3636ZM495.599 15.3636H490.57V59H495.599V15.3636ZM517.33 59.6818C523.978 59.6818 528.836 56.358 530.37 51.4148L525.512 50.0511C524.234 53.4602 521.272 55.1648 517.33 55.1648C511.428 55.1648 507.359 51.3509 507.124 44.3409H530.881V42.2102C530.881 30.0227 523.637 25.8466 516.819 25.8466C507.955 25.8466 502.074 32.8352 502.074 42.892C502.074 52.9489 507.87 59.6818 517.33 59.6818ZM507.124 39.9943C507.465 34.902 511.066 30.3636 516.819 30.3636C522.273 30.3636 525.768 34.4545 525.768 39.9943H507.124ZM537.33 59H542.359V38.2898C542.359 33.858 545.853 30.6193 550.626 30.6193C551.968 30.6193 553.353 30.875 553.694 30.9602V25.8466C553.119 25.804 551.798 25.7614 551.052 25.7614C547.132 25.7614 543.722 27.9773 542.529 31.2159H542.188V26.2727H537.33V59Z" fill="url(#paint2_linear_1161_447)"/>
<defs>
<filter id="filter0_ii_1161_447" x="-2" y="10.12" width="53" height="50.3969" filterUnits="userSpaceOnUse" color-interpolation-filters="sRGB">
<feFlood flood-opacity="0" result="BackgroundImageFix"/>
<feBlend mode="normal" in="SourceGraphic" in2="BackgroundImageFix" result="shape"/>
<feColorMatrix in="SourceAlpha" type="matrix" values="0 0 0 0 0 0 0 0 0 0 0 0 0 0 0 0 0 0 127 0" result="hardAlpha"/>
<feOffset dx="2" dy="2"/>
<feGaussianBlur stdDeviation="2"/>
<feComposite in2="hardAlpha" operator="arithmetic" k2="-1" k3="1"/>
<feColorMatrix type="matrix" values="0 0 0 0 0 0 0 0 0 0 0 0 0 0 0 0 0 0 0.07 0"/>
<feBlend mode="normal" in2="shape" result="effect1_innerShadow_1161_447"/>
<feColorMatrix in="SourceAlpha" type="matrix" values="0 0 0 0 0 0 0 0 0 0 0 0 0 0 0 0 0 0 127 0" result="hardAlpha"/>
<feOffset dx="-2" dy="-2"/>
<feGaussianBlur stdDeviation="2"/>
<feComposite in2="hardAlpha" operator="arithmetic" k2="-1" k3="1"/>
<feColorMatrix type="matrix" values="0 0 0 0 0 0 0 0 0 0 0 0 0 0 0 0 0 0 0.07 0"/>
<feBlend mode="normal" in2="effect1_innerShadow_1161_447" result="effect2_innerShadow_1161_447"/>
</filter>
<linearGradient id="paint0_linear_1161_447" x1="39.0469" y1="33.7719" x2="24.5554" y2="29.7081" gradientUnits="userSpaceOnUse">
<stop stop-color="#00E0FE"/>
<stop offset="1" stop-color="#02CCFF"/>
</linearGradient>
<linearGradient id="paint1_linear_1161_447" x1="283.516" y1="34.5333" x2="239.07" y2="-10.6002" gradientUnits="userSpaceOnUse">
<stop stop-color="#00E0FE"/>
<stop offset="1" stop-color="#02CCFF"/>
</linearGradient>
<linearGradient id="paint2_linear_1161_447" x1="514.719" y1="34.5333" x2="471.575" y2="0.785021" gradientUnits="userSpaceOnUse">
<stop stop-color="#00E0FE"/>
<stop offset="1" stop-color="#02CCFF"/>
</linearGradient>
</defs>
</svg>
